<?xml version="1.0" encoding="UTF-8"?>
<svg xmlns="http://www.w3.org/2000/svg" id="Layer_2" data-name="Layer 2" viewBox="0 0 531.97 110.23">
  <defs>
    <style>
      .cls-1 {
        fill: #643c8b;
      }

      .cls-1, .cls-2, .cls-3, .cls-4, .cls-5, .cls-6, .cls-7, .cls-8 {
        stroke-width: 0px;
      }

      .cls-2 {
        fill: #8465a3;
      }

      .cls-3 {
        fill: #d0d0d0;
      }

      .cls-4 {
        fill: #d3d2d2;
      }

      .cls-5 {
        fill: #c0c0bf;
      }

      .cls-6 {
        fill: #c0bfc0;
      }

      .cls-7 {
        fill: #a9a9a8;
      }

      .cls-8 {
        fill: #997fb3;
      }
    </style>
  </defs>
  <g id="Layer_1-2" data-name="Layer 1">
    <g>
      <g>
        <path class="cls-1" d="m140.66,106.65c-3.68-5.13-7.36-10.26-11.14-15.33-11.91-15.98-24.55-31.35-38.46-45.65-10.17-10.46-20.91-20.31-32.2-29.54-.34-.28-.45-.48-.2-.91,2.05-3.58,3.88-7.28,6.15-10.72.79-1.19,1.61-2.36,2.71-3.29,1.61-1.37,3.28-1.57,5.14-.57,1.88,1.01,3.29,2.54,4.63,4.15,2.8,3.36,5.05,7.1,7.34,10.8,18.6,30.11,37.21,60.21,55.82,90.32.12.2.23.4.35.61.05.13-.02.15-.13.15Z"></path>
        <path class="cls-1" d="m118.03,83.42c-10.62-10.56-23.01-18.7-35.89-26.14-11.99-6.93-24.42-12.99-37.06-18.61-.61-.27-.6-.45-.26-.96.98-1.49,1.88-3.04,2.83-4.55.37-.59.77-1.17,1.18-1.74,1.94-2.71,4.54-3.55,7.73-2.7,2.68.71,5.11,1.96,7.47,3.37,7.15,4.26,13.77,9.24,20.06,14.67,10.56,9.1,20,19.27,28.83,30.03,1.79,2.19,3.58,4.38,5.28,6.64-.05.06-.11.06-.17,0Z"></path>
        <path class="cls-7" d="m95.68,70.66c-6.17-3.3-12.82-5.16-19.66-6.41-3.68-.67-7.38-1.12-11.1-1.48-2.09-.2-4.19-.3-6.29-.41-4.72-.26-9.44-.32-14.16-.23-3.76.07-7.52.24-11.28.38-1.24.05-2.49.16-3.79.25.18-.64.53-1.1.79-1.6,1.07-2.08,2.05-4.2,3.29-6.19,2.3-3.7,5.68-5.39,9.96-5.51,3.85-.11,7.61.56,11.35,1.35,7.6,1.6,14.77,4.39,21.66,7.9,6.76,3.44,13.15,7.48,19.35,11.84.03.11.01.18-.12.12Z"></path>
        <path class="cls-6" d="m14.34,87.01c.38-.65.77-1.3,1.15-1.94,1.42-2.37,2.64-4.85,4.14-7.17,1.46-2.27,3.5-3.78,6.02-4.69,3.68-1.33,7.51-2.08,11.34-2.81,2.35-.45,4.72-.81,7.09-1.09,1.98-.24,3.96-.41,5.95-.59,4.6-.4,9.21-.44,13.82-.33,2.84.07,5.67.32,8.49.7,2.04.27,4.06.62,6.07,1.06.06.01.11.04.15.14-.2,0-.4,0-.6,0-1.87.04-3.74.02-5.61.14-3.28.21-6.54.51-9.8.97-7.18,1.01-14.19,2.73-21.09,4.92-5.98,1.89-11.81,4.15-17.58,6.61-3.16,1.35-6.3,2.76-9.55,4.09Z"></path>
        <path class="cls-4" d="m55.07,81c-20.65,5.33-38.49,15.94-55.07,29.22.94-1.57,1.8-3.02,2.67-4.46,1.2-1.98,2.47-3.91,3.94-5.71,1.54-1.88,3.35-3.49,5.31-4.93,3.02-2.22,6.27-4.07,9.63-5.72,5.48-2.68,11.24-4.56,17.19-5.87,3.39-.75,6.8-1.36,10.25-1.8,1.91-.24,3.82-.5,5.72-.74.12-.02.25,0,.37,0Z"></path>
        <path class="cls-2" d="m140.66,106.65s.08-.1.13-.15c.25.25.4.57.65,1.02-.48-.27-.61-.59-.78-.88Z"></path>
        <path class="cls-5" d="m95.68,70.66s.08-.08.12-.12c.24.14.5.26.67.49-.05.06-.1.06-.16,0-.21-.13-.43-.25-.64-.38Z"></path>
        <path class="cls-8" d="m118.03,83.42c.06,0,.11,0,.17,0,.17.1.29.23.33.51-.23-.17-.4-.31-.5-.51Z"></path>
        <path class="cls-3" d="m96.32,71.04c.05,0,.1,0,.16,0,.13.01.24.05.3.2-.21.06-.33-.07-.45-.19Z"></path>
      </g>
      <g>
        <path class="cls-1" d="m259.18,35.36c2.6,4.56,5.18,9.12,7.86,13.81-2.09,0-3.99.03-5.88-.03-.29,0-.66-.41-.84-.71-2.21-3.81-4.44-7.62-6.56-11.48-.58-1.05-1.19-1.5-2.43-1.44-2.61.11-5.23.03-7.85.03-.37,0-.74,0-1.25,0v13.55h-5.63V16.36c.34-.02.66-.06.98-.06,6.05,0,12.11-.08,18.16.05,1.75.04,3.62.4,5.21,1.11,3.72,1.64,5.18,4.82,5.03,8.75-.15,3.93-2.04,6.8-5.62,8.51-.34.16-.68.3-1.02.45-.03.01-.04.05-.15.19Zm-9.54-13.69s0-.01,0-.02c-2.17,0-4.35,0-6.52,0-.51,0-.95,0-.95.71.02,2.37-.01,4.74.04,7.11,0,.23.41.64.63.64,4.41.03,8.83.08,13.24-.03,1.76-.05,3.33-.72,3.89-2.69.9-3.18-.8-5.59-4.12-5.71-2.07-.07-4.14-.01-6.21-.01Z"></path>
        <path class="cls-1" d="m341.79,21.43c-1.07,1.53-2.12,3.03-3.23,4.62-.44-.34-.83-.64-1.23-.94-3.91-2.96-8.25-4.48-13.21-4.01-1.62.15-3.14.6-4.42,1.64-1.73,1.4-1.58,3.7.49,4.49,1.81.69,3.79.99,5.72,1.27,2.98.43,6.04.48,8.97,1.1,3.59.76,6.5,2.77,7.73,6.39,1.3,3.82.46,7.3-2.55,10.12-2.34,2.2-5.21,3.3-8.34,3.66-7.26.84-13.89-.82-19.75-5.25-.22-.16-.43-.33-.64-.51-.07-.06-.11-.16-.22-.33,1.02-1.51,2.06-3.05,3.16-4.68.47.35.86.65,1.27.94,4.21,3.05,8.8,4.95,14.11,4.65,2-.12,3.89-.59,5.54-1.79,1.45-1.05,2.27-2.43,2.08-4.26-.19-1.76-1.36-2.88-2.91-3.33-1.83-.54-3.77-.76-5.67-1.04-3.11-.46-6.28-.67-9.35-1.34-3.04-.66-5.42-2.47-6.3-5.6-.86-3.07-.11-5.84,2.24-8.08,2.2-2.11,4.92-3.13,7.89-3.42,6.8-.65,12.89,1.27,18.31,5.36.08.06.14.15.31.33Z"></path>
        <path class="cls-1" d="m417.24,15.62c9.99,0,17.1,7.2,17.09,17.28-.01,9.92-7.24,17.11-17.2,17.09-9.79-.02-16.98-7.34-16.94-17.25.03-9.94,7.19-17.12,17.05-17.12Zm11.33,17.17c-.09-.81-.13-1.62-.27-2.42-1.62-9.46-11.86-11.57-17.65-7.33-3.57,2.61-4.85,6.3-4.67,10.59.3,7.42,6.94,12.39,14.15,10.6,5.13-1.27,8.37-5.71,8.44-11.45Z"></path>
        <path class="cls-1" d="m459.83,27.84v21.28h-5.54V16.31c1.01,0,2.02-.06,3.02.03.33.03.65.43.91.73,5.71,6.55,11.41,13.1,17.12,19.65.29.33.58.65,1.08,1.21v-21.57h5.6v32.8c-.97,0-1.92.06-2.85-.03-.33-.03-.67-.41-.92-.7-5.74-6.56-11.48-13.14-17.21-19.71-.3-.35-.62-.69-.92-1.03-.09.04-.19.09-.28.13Z"></path>
        <path class="cls-1" d="m504.63,16.35h26.12v5.25h-20.46v7.31h12.31v5.4h-12.34v9.43h21.72v5.36h-27.34V16.35Z"></path>
        <path class="cls-1" d="m219.44,49.18c-1.92,0-3.66-.03-5.39.02-.62.02-.9-.24-1.15-.75-1.14-2.31-2.33-4.59-3.47-6.9-.26-.52-.56-.74-1.16-.74-4.86.02-9.72.02-14.58,0-.6,0-.91.2-1.16.73-1.1,2.29-2.26,4.55-3.35,6.84-.29.62-.65.83-1.32.81-1.66-.05-3.33-.02-5.15-.02.16-.38.26-.68.4-.96,5.06-10.31,10.14-20.61,15.18-30.92.36-.74.75-1.09,1.6-1.01,1.07.1,2.37-.27,3.18.22.77.46,1.04,1.75,1.51,2.69,4.78,9.61,9.56,19.23,14.33,28.85.16.33.31.66.53,1.14Zm-13.04-13.84c-1.81-3.62-3.55-7.1-5.43-10.85-1.86,3.75-3.59,7.23-5.39,10.85h10.81Z"></path>
        <path class="cls-1" d="m369.15,21.61h-13.05v-5.23h31.79v5.2c-.39.03-.78.08-1.18.08-3.6,0-7.21.03-10.81-.02-.91-.01-1.15.28-1.14,1.16.03,8.34.02,16.68.02,25.02,0,.4,0,.81,0,1.29h-5.64v-27.49Z"></path>
        <path class="cls-1" d="m291.87,16.2v32.9h-5.56V16.2h5.56Z"></path>
        <path class="cls-1" d="m413.88,76.54v5.96h-2.39v-13.91c.99,0,1.93,0,2.87,0,2.28,0,4.55-.01,6.83,0,2.5.02,3.98,1.05,4.43,3.05.46,2.06-.45,3.65-2.72,4.73-.12.06-.23.14-.42.26,1.22,1.93,2.43,3.83,3.76,5.93-.89,0-1.59.06-2.27-.03-.29-.04-.61-.36-.8-.64-1.02-1.52-2.04-3.04-3-4.6-.35-.56-.75-.78-1.41-.76-1.59.04-3.18.01-4.88.01Zm4.07-2.25s0,0,0-.01c1.15,0,2.31.06,3.46-.01,1.38-.09,2.11-1.07,1.75-2.26-.32-1.04-1.22-1.19-2.12-1.21-1.52-.04-3.05-.01-4.58-.01q-2.7,0-2.58,2.71s0,.07,0,.1c-.05.52.19.72.71.71,1.12-.02,2.24,0,3.36,0Z"></path>
        <path class="cls-1" d="m297.36,83.08c-.92-.17-2.09-.26-3.17-.62-3.26-1.06-5.37-4.01-5.21-7.11.18-3.44,2.59-6.2,6.11-6.93,1.85-.38,3.71-.38,5.54.15,3.66,1.06,5.7,3.82,5.55,7.52-.12,3.15-2.74,5.99-6.17,6.65-.8.15-1.61.2-2.66.33Zm.35-12.93c-.03.07-.06.13-.08.2-.6.08-1.22.12-1.81.24-2.49.52-4.25,2.46-4.31,4.72-.07,2.54,1.38,4.5,4.03,5.11,1.16.27,2.42.28,3.61.15,2.22-.25,4.1-1.98,4.47-3.88.43-2.16-.33-4.17-2.23-5.23-1.12-.62-2.44-.88-3.67-1.31Z"></path>
        <path class="cls-1" d="m396.24,83.27c-1.54-.46-3.17-.73-4.59-1.43-2.95-1.46-4.24-4.31-3.74-7.65.41-2.71,2.94-5.16,6.02-5.77,1.86-.37,3.71-.36,5.54.17,3.64,1.06,5.62,3.79,5.48,7.56-.11,3.1-2.69,5.91-6.1,6.59-.83.17-1.68.21-2.52.31-.03.07-.07.15-.1.22Zm.24-12.93c-.67.09-1.28.13-1.88.25-2.52.51-4.28,2.48-4.34,4.82-.07,2.41,1.46,4.43,4.04,5.01,1.19.27,2.5.3,3.71.13,2.61-.36,4.43-2.43,4.52-4.86.08-2.32-1.55-4.34-4.1-5.01-.65-.17-1.33-.23-1.94-.34Z"></path>
        <path class="cls-1" d="m269.39,80.73c.4-.69.75-1.3,1.14-1.96.76.37,1.47.77,2.21,1.06,1.78.72,3.61,1.2,5.55.79.2-.04.4-.08.59-.14,1.33-.43,2.11-1.32,2.07-2.34-.04-1.02-.72-1.71-2.25-1.96-1.3-.22-2.64-.21-3.95-.34-.77-.08-1.54-.22-2.3-.39-2.88-.67-3.07-4.29-1.39-5.64.86-.69,1.98-1.19,3.06-1.45,2.65-.65,6.4.27,8.56,1.95-.37.61-.76,1.23-1.03,1.68-1.69-.55-3.23-1.23-4.83-1.49-1.07-.18-2.26.15-3.36.41-.65.16-1.15.8-.89,1.49.17.45.71.99,1.15,1.06,1.47.24,2.97.27,4.45.43.8.09,1.62.21,2.38.47,1.47.5,2.53,1.44,2.8,3.06.3,1.8-.21,3.34-1.78,4.32-.81.51-1.76.94-2.7,1.08-3.38.53-6.5-.28-9.47-2.09Z"></path>
        <path class="cls-1" d="m444.62,70.24c-.43.71-.79,1.31-1.06,1.75-1.66-.54-3.2-1.23-4.8-1.49-1.1-.18-2.34.13-3.44.46-.41.12-.87.93-.85,1.4.02.39.65.98,1.1,1.09,1.01.25,2.08.21,3.12.36,1.37.19,2.81.23,4.07.72,3.04,1.17,3.57,4.98.99,6.98-.82.64-1.9,1.12-2.93,1.29-3.38.59-6.51-.25-9.53-2.06.39-.69.75-1.32.98-1.73,1.99.6,3.82,1.34,5.72,1.64,1.13.18,2.41-.18,3.54-.55.93-.3,1.38-1.16,1.24-2.21-.12-.96-.82-1.45-1.64-1.59-1.43-.24-2.9-.3-4.34-.47-.81-.09-1.61-.22-2.4-.39-1.27-.28-2.14-1.06-2.39-2.35-.26-1.34-.05-2.66,1.13-3.48.87-.6,1.9-1.1,2.93-1.29,3.03-.54,5.84.18,8.55,1.89Z"></path>
        <path class="cls-1" d="m355.5,71.49c-.77.53-1.35.93-2.01,1.39-1.19-1.53-2.79-2.23-4.65-2.46-2.9-.36-5.81,1.29-6.53,3.74-.87,3.02,1.21,5.99,4.49,6.46,2.69.38,4.98-.26,6.69-2.49.1-.13.17-.3.26-.46.74.5,1.32.9,1.97,1.35-.7,1.26-1.66,2.19-2.88,2.82-3.03,1.56-6.15,1.64-9.2.15-2.54-1.25-3.94-3.35-3.99-6.25-.05-2.84,1.19-5.02,3.66-6.35,3.4-1.83,6.85-1.69,10.16.33.71.43,1.27,1.1,2.04,1.78Z"></path>
        <path class="cls-1" d="m378.11,82.51h-2.43v-11.74h-5.8c0-.61-.05-1.14.03-1.65.03-.21.36-.52.55-.53,4.44-.03,8.89-.02,13.4-.02v2.13h-5.75v11.81Z"></path>
        <path class="cls-1" d="m312.68,68.74c.08-.06.1-.1.13-.1,2.12-.34,2.19-.28,2.19,1.81,0,2.85,0,5.7,0,8.55q0,1.37,1.42,1.38c2.55,0,5.1,0,7.65,0,.37,0,.74,0,1.18,0v2.13h-12.58v-13.76Z"></path>
        <path class="cls-1" d="m333.13,82.51h-2.33c-.02-.34-.07-.67-.07-.99,0-3.96.03-7.92-.03-11.88-.02-1.02.41-1.16,1.26-1.15.82,0,1.2.15,1.19,1.11-.05,4.26-.02,8.52-.02,12.91Z"></path>
        <path class="cls-1" d="m364.63,82.44s-.05.06-.08.06q-2.26.3-2.26-1.97c0-3.59-.01-7.19.02-10.78,0-.4.14-1.08.34-1.13.6-.14,1.27-.05,1.9,0,.08,0,.18.34.18.52,0,4.41-.02,8.81-.03,13.22,0,.03-.04.05-.06.08Z"></path>
      </g>
    </g>
  </g>
</svg>
